Coordinates
version=1
nRows=9
nColumns=36
inDegrees=yes

Units are S.I. units (second, meters, Newtons, ...)
If the header above contains a line with 'inDegrees', this indicates whether rotational values are in degrees (yes) or radians (no).

endheader
time	pelvis_tilt	pelvis_list	pelvis_rotation	pelvis_tx	pelvis_ty	pelvis_tz	hip_flexion_r	hip_adduction_r	hip_rotation_r	knee_angle_r	knee_angle_r_beta	ankle_angle_r	subtalar_angle_r	mtp_angle_r	hip_flexion_l	hip_adduction_l	hip_rotation_l	knee_angle_l	knee_angle_l_beta	ankle_angle_l	subtalar_angle_l	mtp_angle_l	lumbar_extension	lumbar_bending	lumbar_rotation	arm_flex_r	arm_add_r	arm_rot_r	elbow_flex_r	pro_sup_r	arm_flex_l	arm_add_l	arm_rot_l	elbow_flex_l	pro_sup_l
      0.00000000	     -5.18988484	     -0.73577802	     -2.80129294	     -0.15048467	      0.90988564	     -0.55798366	      2.68334239	      2.16932607	      5.33109445	      2.22770444	      0.03888078	      6.37413094	     -5.39761860	     -4.32958782	      7.07707853	     -7.51965908	      0.29959626	     11.68983456	      0.20402610	      8.42820534	     -8.39195097	     -4.32958782	      1.71486023	      3.97943154	     -2.29718036	     42.79311911	    -21.15252748	     16.83448304	     66.92766111	     98.23662067	     36.53099481	    -19.12855696	     11.01918105	     71.64723922	     90.94751527
      0.01000000	     -5.20018244	     -0.77516965	     -2.77759297	     -0.15072432	      0.90989119	     -0.55783772	      2.79233348	      2.20307350	      4.98625226	      2.38321377	      0.04159493	      6.85177578	     -4.58263602	     -4.68210864	      7.13866261	     -7.60375240	      0.22223127	     11.75944762	      0.20524108	      8.80465171	     -7.97320326	     -4.68210864	      1.65502504	      4.03053137	     -2.29824385	     42.91435189	    -21.19208200	     16.86747945	     67.09560354	     96.54076271	     36.73963911	    -19.15901851	     11.24574191	     71.75787754	     89.41350298
      0.02000000	     -5.21998927	     -0.74206643	     -2.79637394	     -0.15104460	      0.90994976	     -0.55769840	      2.81364474	      2.20900772	      5.47916188	      2.33090734	      0.04068201	      6.19802996	     -5.79305875	     -5.20051458	      7.17050193	     -7.57289509	      0.23170175	     11.72310806	      0.20460683	      8.47605169	     -8.21870819	     -5.20051458	      1.57907591	      4.00159660	     -2.25053326	     43.04036401	    -21.22384661	     16.79424608	     67.04296046	     97.86402598	     36.94879389	    -19.13406107	     11.33342352	     71.73370142	     89.50545026
      0.03000000	     -5.23233682	     -0.79767726	     -2.78181217	     -0.15127013	      0.90995499	     -0.55757889	      2.94404101	      2.26543211	      5.10102480	      2.53051160	      0.04416576	      6.72103418	     -4.90644908	     -5.45278780	      7.24373163	     -7.66575088	      0.13630958	     11.80993023	      0.20612217	      8.78555492	     -7.82712333	     -5.45278780	      1.51454240	      4.08264102	     -2.24185589	     43.17028554	    -21.29197519	     16.91752298	     67.24377484	     96.22431423	     37.16954152	    -19.15333687	     11.52621347	     71.83404282	     88.07878597
      0.04000000	     -5.53115901	     -0.79773457	     -2.74358577	     -0.15156461	      0.90960338	     -0.55746065	      3.41825059	      2.29012073	      4.79559327	      2.74728940	      0.04794925	      6.82075553	     -4.78217450	     -5.52510252	      7.70676890	     -7.71665614	     -0.09197113	     11.96464274	      0.20882241	      8.70297646	     -7.68478725	     -5.52510252	      1.79841179	      4.08653438	     -2.27057538	     43.13979596	    -21.31494425	     16.75853215	     67.40909623	     95.61604633	     37.22172614	    -19.06956870	     11.43142713	     71.98641156	     87.55169490
      0.05000000	     -5.32660199	     -0.80657709	     -2.80706998	     -0.15190710	      0.90997035	     -0.55726924	      3.18116264	      2.33556370	      5.40696097	      2.68934392	      0.04693791	      6.28224444	     -5.72381626	     -6.29998200	      7.43123539	     -7.71629593	      0.00901725	     11.86442463	      0.20707327	      8.52544507	     -7.81091044	     -6.29998200	      1.43435279	      4.12100925	     -2.21398056	     43.55356131	    -21.46701080	     17.12255894	     66.99016056	     99.84907619	     37.55972000	    -19.18203968	     11.57809123	     71.49921898	     90.51190910
      0.06000000	     -5.38111503	     -0.81263477	     -2.76940110	     -0.15228842	      0.90997496	     -0.55724069	      3.34705604	      2.36158591	      5.39850122	      2.84628488	      0.04967704	      6.21375215	     -5.89069426	     -6.74011652	      7.53451416	     -7.70812685	      0.19831269	     11.87304120	      0.20722366	      8.34695509	     -8.08635417	     -6.74011652	      1.39383379	      4.15505279	     -2.24556415	     43.75997467	    -21.48931812	     17.25264927	     67.01998540	     99.07891741	     37.77837760	    -19.20758544	     11.74348592	     71.55041664	     89.49575526
      0.07000000	     -5.33122490	     -0.82138117	     -2.73188974	     -0.15266161	      0.91012837	     -0.55714757	      3.45709163	      2.35991341	      4.97189750	      3.09907816	      0.05408912	      6.61466619	     -5.16025554	     -6.89135543	      7.57267078	     -7.74492556	      0.06215599	     11.96067317	      0.20875313	      8.31199254	     -7.81369604	     -6.89135543	      1.22294821	      4.17309870	     -2.24584652	     43.97239773	    -21.57026175	     17.56714649	     67.30454820	     95.36647349	     38.11882239	    -19.27518522	     12.18483725	     71.78532627	     86.15793397
      0.08000000	     -5.40174954	     -0.85272087	     -2.74568160	     -0.15323264	      0.91011716	     -0.55698209	      3.66972010	      2.44420163	      5.27090973	      3.28588533	      0.05734952	      6.28789855	     -5.91966775	     -7.09016515	      7.75283491	     -7.79401289	      0.08837451	     12.08640415	      0.21094755	      8.34985192	     -7.92107217	     -7.09016515	      1.14418837	      4.23545093	     -2.25350402	     44.21597743	    -21.52637633	     17.32229169	     66.98907014	    100.02233945	     38.34307427	    -19.22955213	     11.93797068	     71.27955228	     90.29541544
